<svg xmlns="http://www.w3.org/2000/svg" xmlns:xlink="http://www.w3.org/1999/xlink" width="500" zoomAndPan="magnify" viewBox="0 0 375 374.999991" height="500" preserveAspectRatio="xMidYMid meet" version="1.0"><defs><clipPath id="5d65b59741"><path d="M 132 24 L 372.75 24 L 372.75 375 L 132 375 Z M 132 24 " clip-rule="nonzero"/></clipPath></defs><g clip-path="url(#5d65b59741)"><path fill="#ffde59" d="M 211.054688 163.917969 C 206.074219 161.460938 204.003906 155.371094 206.460938 150.378906 L 253.03125 55.851562 L 271.152344 64.789062 L 224.582031 159.320312 C 222.128906 164.308594 216.042969 166.375 211.054688 163.917969 Z M 267.71875 24.074219 L 268.003906 24.304688 C 346.3125 67.15625 377.625 164.574219 337.785156 245.433594 C 326.109375 269.136719 309.578125 288.863281 289.988281 303.988281 C 256.960938 329.484375 215.238281 341.925781 173.402344 338.402344 L 223.910156 235.867188 C 231.457031 221.121094 234.761719 218.679688 248.9375 212.722656 C 263.8125 206.464844 268.914062 205.1875 276.867188 191.375 C 292.074219 164.960938 308.445312 116.539062 318.699219 88.09375 L 306.480469 82.367188 C 293.570312 110.667969 286.914062 127.496094 273.402344 153.957031 C 242.28125 214.90625 237.726562 184.027344 215.039062 206.941406 C 212.414062 209.59375 202.675781 227.046875 191.09375 248.988281 L 137.363281 358.058594 L 132.476562 367.976562 C 183.671875 382.316406 240.589844 375.039062 288.257812 343.152344 C 320.804688 321.390625 344.414062 291.25 358.125 257.5 C 357.414062 259.171875 356.675781 260.832031 355.910156 262.492188 C 396.574219 174.378906 359.792969 69.394531 272.28125 26.238281 C 270.769531 25.488281 269.238281 24.769531 267.71875 24.066406 Z M 236.96875 176.695312 C 231.988281 174.238281 229.917969 168.140625 232.375 163.160156 L 278.945312 68.621094 L 297.070312 77.5625 L 250.496094 172.089844 C 248.042969 177.082031 241.957031 179.144531 236.96875 176.6875 Z M 236.96875 176.695312 " fill-opacity="1" fill-rule="evenodd"/></g><path fill="#69b550" d="M 9.9375 170.785156 L 13.109375 166.699219 C 15.417969 163.042969 14.339844 165.238281 16.53125 160.765625 L 29.425781 134.171875 C 45.171875 106.085938 83.300781 57.011719 127.308594 43.628906 C 97.386719 65.03125 53.65625 95.214844 25.0625 173.8125 C -0.75 244.746094 16.421875 298.929688 51.304688 324.640625 C 83.613281 348.453125 125.1875 354.324219 141.601562 322.371094 C 154.421875 297.421875 168.28125 270.441406 181.6875 244.34375 C 192.027344 221.785156 199.925781 203.425781 200.4375 199.734375 C 204.785156 167.773438 177.535156 182.960938 206.890625 121.144531 C 219.640625 94.304688 228.921875 78.773438 243.496094 51.292969 L 231.515625 45.089844 C 215.207031 70.554688 186.800781 113.039062 175.125 141.195312 C 169.015625 155.917969 171.109375 160.742188 175.210938 176.355469 C 179.117188 191.234375 179.195312 195.347656 172.097656 210.3125 L 132.027344 288.421875 C 113.339844 324.859375 76.769531 315.167969 53.171875 288.183594 C 34.230469 266.527344 26.601562 232.316406 38.238281 195.53125 C 58.167969 184.429688 83.804688 186.507812 111.835938 168.121094 C 158.847656 137.277344 166.714844 50.367188 220.597656 13.179688 C 160.46875 -32.835938 -46.425781 46.890625 9.945312 170.785156 Z M 9.9375 170.785156 " fill-opacity="1" fill-rule="evenodd"/></svg>