<svg xmlns="http://www.w3.org/2000/svg" xmlns:xlink="http://www.w3.org/1999/xlink" width="500" zoomAndPan="magnify" viewBox="0 0 375 374.999991" height="500" preserveAspectRatio="xMidYMid meet" version="1.0"><defs><clipPath id="7313e1f7d8"><path d="M 1.28125 0 L 245 0 L 245 345 L 1.28125 345 Z M 1.28125 0 " clip-rule="nonzero"/></clipPath></defs><path fill="#ef5350" d="M 212.335938 163.917969 C 207.355469 161.460938 205.285156 155.371094 207.738281 150.378906 L 254.3125 55.851562 L 272.433594 64.789062 L 225.863281 159.320312 C 223.40625 164.308594 217.324219 166.375 212.335938 163.917969 Z M 269 24.074219 L 269.285156 24.304688 C 347.59375 67.15625 378.90625 164.574219 339.066406 245.433594 C 327.390625 269.136719 310.859375 288.863281 291.269531 303.988281 C 258.242188 329.484375 216.519531 341.925781 174.683594 338.402344 L 225.191406 235.867188 C 232.734375 221.121094 236.042969 218.679688 250.21875 212.722656 C 265.089844 206.464844 270.195312 205.1875 278.148438 191.375 C 293.351562 164.960938 309.722656 116.539062 319.980469 88.09375 L 307.761719 82.367188 C 294.851562 110.667969 288.195312 127.496094 274.679688 153.957031 C 243.5625 214.90625 239.007812 184.027344 216.320312 206.941406 C 213.695312 209.59375 203.957031 227.046875 192.375 248.988281 L 138.644531 358.058594 L 133.757812 367.976562 C 184.953125 382.316406 241.871094 375.039062 289.539062 343.152344 C 322.085938 321.390625 345.691406 291.25 359.40625 257.5 C 358.695312 259.171875 357.953125 260.832031 357.191406 262.492188 C 397.855469 174.378906 361.074219 69.394531 273.5625 26.238281 C 272.046875 25.488281 270.519531 24.769531 269 24.066406 Z M 238.25 176.695312 C 233.269531 174.238281 231.199219 168.140625 233.65625 163.160156 L 280.226562 68.621094 L 298.347656 77.5625 L 251.777344 172.089844 C 249.324219 177.082031 243.238281 179.144531 238.25 176.6875 Z M 238.25 176.695312 " fill-opacity="1" fill-rule="evenodd"/><g clip-path="url(#7313e1f7d8)"><path fill="#69b550" d="M 11.21875 170.785156 L 14.390625 166.699219 C 16.699219 163.042969 15.617188 165.238281 17.8125 160.765625 L 30.707031 134.171875 C 46.453125 106.085938 84.582031 57.011719 128.589844 43.628906 C 98.667969 65.03125 54.9375 95.214844 26.34375 173.8125 C 0.53125 244.746094 17.703125 298.929688 52.582031 324.640625 C 84.890625 348.453125 126.464844 354.324219 142.882812 322.371094 C 155.703125 297.421875 169.5625 270.441406 182.96875 244.34375 C 193.308594 221.785156 201.207031 203.425781 201.71875 199.734375 C 206.066406 167.773438 178.8125 182.960938 208.171875 121.144531 C 220.921875 94.304688 230.203125 78.773438 244.773438 51.292969 L 232.796875 45.089844 C 216.488281 70.554688 188.082031 113.039062 176.40625 141.195312 C 170.296875 155.917969 172.390625 160.742188 176.488281 176.355469 C 180.398438 191.234375 180.472656 195.347656 173.378906 210.3125 L 133.308594 288.421875 C 114.621094 324.859375 78.050781 315.167969 54.453125 288.183594 C 35.511719 266.527344 27.878906 232.316406 39.519531 195.53125 C 59.449219 184.429688 85.085938 186.507812 113.117188 168.121094 C 160.125 137.277344 167.996094 50.367188 221.878906 13.179688 C 161.75 -32.835938 -45.144531 46.890625 11.222656 170.785156 Z M 11.21875 170.785156 " fill-opacity="1" fill-rule="evenodd"/></g></svg>