<svg xmlns="http://www.w3.org/2000/svg" xmlns:xlink="http://www.w3.org/1999/xlink" width="500" zoomAndPan="magnify" viewBox="0 0 375 374.999991" height="500" preserveAspectRatio="xMidYMid meet" version="1.0"><defs><g/><clipPath id="e177dd82d2"><path d="M 167 95 L 257.640625 95 L 257.640625 227.898438 L 167 227.898438 Z M 167 95 " clip-rule="nonzero"/></clipPath><clipPath id="bd48481cf3"><path d="M 117.390625 86.898438 L 210 86.898438 L 210 217 L 117.390625 217 Z M 117.390625 86.898438 " clip-rule="nonzero"/></clipPath></defs><g clip-path="url(#e177dd82d2)"><path fill="#ef5350" d="M 196.800781 148.53125 C 194.929688 147.609375 194.148438 145.320312 195.074219 143.441406 L 212.59375 107.898438 L 219.414062 111.261719 L 201.890625 146.804688 C 200.96875 148.679688 198.679688 149.457031 196.800781 148.53125 Z M 218.121094 95.953125 L 218.226562 96.039062 C 247.691406 112.148438 259.472656 148.777344 244.484375 179.183594 C 240.089844 188.09375 233.871094 195.511719 226.5 201.199219 C 214.074219 210.785156 198.375 215.464844 182.636719 214.136719 L 201.640625 175.585938 C 204.476562 170.039062 205.722656 169.121094 211.054688 166.882812 C 216.652344 164.53125 218.570312 164.050781 221.5625 158.855469 C 227.285156 148.925781 233.441406 130.71875 237.300781 120.023438 L 232.707031 117.871094 C 227.847656 128.511719 225.34375 134.835938 220.257812 144.789062 C 208.550781 167.703125 206.835938 156.09375 198.300781 164.710938 C 197.3125 165.707031 193.648438 172.269531 189.292969 180.519531 L 169.078125 221.527344 L 167.238281 225.257812 C 186.5 230.652344 207.914062 227.914062 225.847656 215.925781 C 238.09375 207.742188 246.976562 196.410156 252.136719 183.71875 C 251.867188 184.347656 251.589844 184.972656 251.300781 185.597656 C 266.601562 152.464844 252.761719 112.992188 219.835938 96.765625 C 219.269531 96.484375 218.691406 96.214844 218.121094 95.949219 Z M 206.550781 153.335938 C 204.679688 152.414062 203.898438 150.121094 204.824219 148.246094 L 222.34375 112.703125 L 229.164062 116.0625 L 211.640625 151.605469 C 210.71875 153.480469 208.429688 154.257812 206.550781 153.335938 Z M 206.550781 153.335938 " fill-opacity="1" fill-rule="evenodd"/></g><g clip-path="url(#bd48481cf3)"><path fill="#69b550" d="M 121.136719 151.113281 L 122.328125 149.578125 C 123.199219 148.203125 122.789062 149.027344 123.617188 147.347656 L 128.46875 137.347656 C 134.390625 126.789062 148.738281 108.335938 165.292969 103.304688 C 154.035156 111.351562 137.585938 122.699219 126.828125 152.253906 C 117.113281 178.925781 123.574219 199.296875 136.699219 208.964844 C 148.855469 217.917969 164.496094 220.125 170.671875 208.109375 C 175.496094 198.730469 180.710938 188.585938 185.753906 178.773438 C 189.644531 170.289062 192.617188 163.386719 192.808594 162 C 194.441406 149.980469 184.191406 155.691406 195.234375 132.449219 C 200.03125 122.359375 203.523438 116.519531 209.007812 106.1875 L 204.5 103.851562 C 198.363281 113.429688 187.675781 129.402344 183.285156 139.988281 C 180.984375 145.523438 181.773438 147.339844 183.316406 153.210938 C 184.785156 158.804688 184.816406 160.347656 182.144531 165.976562 L 167.070312 195.347656 C 160.039062 209.046875 146.28125 205.402344 137.402344 195.257812 C 130.273438 187.113281 127.40625 174.25 131.78125 160.417969 C 139.28125 156.246094 148.925781 157.027344 159.472656 150.113281 C 177.160156 138.515625 180.121094 105.835938 200.394531 91.855469 C 177.769531 74.554688 99.929688 104.53125 121.136719 151.113281 Z M 121.136719 151.113281 " fill-opacity="1" fill-rule="evenodd"/></g><g fill="#ef5350" fill-opacity="1"><g transform="translate(94.901175, 274.053438)"><g><path d="M 16.59375 -26.171875 C 16.59375 -26.597656 16.804688 -26.8125 17.234375 -26.8125 L 21.34375 -26.8125 C 21.769531 -26.8125 21.984375 -26.597656 21.984375 -26.171875 L 21.984375 -0.65625 C 21.984375 -0.21875 21.769531 0 21.34375 0 L 17.234375 0 C 16.804688 0 16.59375 -0.21875 16.59375 -0.65625 L 16.59375 -11 C 16.59375 -11.144531 16.515625 -11.21875 16.359375 -11.21875 L 7.96875 -11.21875 C 7.8125 -11.21875 7.734375 -11.144531 7.734375 -11 L 7.734375 -0.65625 C 7.734375 -0.21875 7.519531 0 7.09375 0 L 2.984375 0 C 2.554688 0 2.34375 -0.21875 2.34375 -0.65625 L 2.34375 -26.171875 C 2.34375 -26.597656 2.554688 -26.8125 2.984375 -26.8125 L 7.09375 -26.8125 C 7.519531 -26.8125 7.734375 -26.597656 7.734375 -26.171875 L 7.734375 -16.09375 C 7.734375 -15.9375 7.8125 -15.859375 7.96875 -15.859375 L 16.359375 -15.859375 C 16.515625 -15.859375 16.59375 -15.9375 16.59375 -16.09375 Z M 16.59375 -26.171875 "/></g></g></g><g fill="#ef5350" fill-opacity="1"><g transform="translate(118.958955, 274.053438)"><g><path d="M 11.5 -4.25 C 13.175781 -4.332031 14.460938 -4.921875 15.359375 -6.015625 C 15.515625 -6.191406 15.679688 -6.28125 15.859375 -6.28125 C 16.015625 -6.28125 16.15625 -6.21875 16.28125 -6.09375 L 18.46875 -3.984375 C 18.625 -3.828125 18.703125 -3.675781 18.703125 -3.53125 C 18.703125 -3.34375 18.648438 -3.1875 18.546875 -3.0625 C 17.703125 -2.019531 16.617188 -1.195312 15.296875 -0.59375 C 13.984375 0.0078125 12.550781 0.3125 11 0.3125 C 8.644531 0.3125 6.691406 -0.285156 5.140625 -1.484375 C 3.597656 -2.691406 2.5625 -4.34375 2.03125 -6.4375 C 1.726562 -7.5625 1.578125 -8.75 1.578125 -10 C 1.578125 -11.476562 1.71875 -12.726562 2 -13.75 C 2.507812 -15.644531 3.535156 -17.164062 5.078125 -18.3125 C 6.617188 -19.457031 8.453125 -20.03125 10.578125 -20.03125 C 13.078125 -20.03125 15.0625 -19.289062 16.53125 -17.8125 C 18 -16.332031 18.953125 -14.253906 19.390625 -11.578125 C 19.492188 -10.734375 19.566406 -9.800781 19.609375 -8.78125 C 19.609375 -8.34375 19.394531 -8.125 18.96875 -8.125 L 7.203125 -8.125 C 7.046875 -8.125 6.96875 -8.046875 6.96875 -7.890625 C 7.050781 -7.359375 7.140625 -6.960938 7.234375 -6.703125 C 7.492188 -5.910156 8 -5.300781 8.75 -4.875 C 9.507812 -4.457031 10.425781 -4.25 11.5 -4.25 Z M 10.5 -15.359375 C 9.675781 -15.359375 8.988281 -15.160156 8.4375 -14.765625 C 7.894531 -14.367188 7.519531 -13.816406 7.3125 -13.109375 C 7.1875 -12.617188 7.113281 -12.296875 7.09375 -12.140625 C 7.0625 -11.992188 7.125 -11.921875 7.28125 -11.921875 L 13.796875 -11.921875 C 13.921875 -11.921875 13.984375 -11.96875 13.984375 -12.0625 C 13.984375 -12.34375 13.929688 -12.640625 13.828125 -12.953125 C 13.597656 -13.691406 13.203125 -14.273438 12.640625 -14.703125 C 12.078125 -15.140625 11.363281 -15.359375 10.5 -15.359375 Z M 10.5 -15.359375 "/></g></g></g><g fill="#ef5350" fill-opacity="1"><g transform="translate(139.913738, 274.053438)"><g><path d="M 9.890625 -20 C 11.546875 -20 13.023438 -19.710938 14.328125 -19.140625 C 15.628906 -18.566406 16.644531 -17.78125 17.375 -16.78125 C 18.101562 -15.78125 18.46875 -14.671875 18.46875 -13.453125 L 18.46875 -0.65625 C 18.46875 -0.21875 18.25 0 17.8125 0 L 13.71875 0 C 13.28125 0 13.0625 -0.21875 13.0625 -0.65625 L 13.0625 -1.578125 C 13.0625 -1.671875 13.035156 -1.722656 12.984375 -1.734375 C 12.929688 -1.753906 12.867188 -1.722656 12.796875 -1.640625 C 11.617188 -0.335938 9.867188 0.3125 7.546875 0.3125 C 5.578125 0.3125 3.992188 -0.171875 2.796875 -1.140625 C 1.597656 -2.117188 1 -3.550781 1 -5.4375 C 1 -7.40625 1.6875 -8.929688 3.0625 -10.015625 C 4.445312 -11.097656 6.414062 -11.640625 8.96875 -11.640625 L 12.828125 -11.640625 C 12.984375 -11.640625 13.0625 -11.71875 13.0625 -11.875 L 13.0625 -12.6875 C 13.0625 -13.53125 12.800781 -14.1875 12.28125 -14.65625 C 11.757812 -15.125 11 -15.359375 10 -15.359375 C 9.226562 -15.359375 8.59375 -15.226562 8.09375 -14.96875 C 7.601562 -14.71875 7.269531 -14.363281 7.09375 -13.90625 C 6.9375 -13.550781 6.679688 -13.382812 6.328125 -13.40625 L 2.0625 -13.953125 C 1.863281 -13.972656 1.707031 -14.023438 1.59375 -14.109375 C 1.476562 -14.203125 1.429688 -14.328125 1.453125 -14.484375 C 1.578125 -15.523438 2.015625 -16.46875 2.765625 -17.3125 C 3.523438 -18.15625 4.523438 -18.8125 5.765625 -19.28125 C 7.003906 -19.757812 8.378906 -20 9.890625 -20 Z M 9.125 -3.71875 C 10.21875 -3.71875 11.144531 -4.007812 11.90625 -4.59375 C 12.675781 -5.1875 13.0625 -5.941406 13.0625 -6.859375 L 13.0625 -8.203125 C 13.0625 -8.347656 12.984375 -8.421875 12.828125 -8.421875 L 10.109375 -8.421875 C 8.960938 -8.421875 8.054688 -8.203125 7.390625 -7.765625 C 6.722656 -7.335938 6.390625 -6.726562 6.390625 -5.9375 C 6.390625 -5.25 6.640625 -4.707031 7.140625 -4.3125 C 7.640625 -3.914062 8.300781 -3.71875 9.125 -3.71875 Z M 9.125 -3.71875 "/></g></g></g><g fill="#ef5350" fill-opacity="1"><g transform="translate(160.140654, 274.053438)"><g><path d="M 2.71875 0 C 2.28125 0 2.0625 -0.21875 2.0625 -0.65625 L 2.0625 -26.171875 C 2.0625 -26.597656 2.28125 -26.8125 2.71875 -26.8125 L 6.8125 -26.8125 C 7.25 -26.8125 7.46875 -26.597656 7.46875 -26.171875 L 7.46875 -0.65625 C 7.46875 -0.21875 7.25 0 6.8125 0 Z M 2.71875 0 "/></g></g></g><g fill="#ef5350" fill-opacity="1"><g transform="translate(169.679487, 274.053438)"><g><path d="M 13.296875 -16.015625 C 13.296875 -15.578125 13.078125 -15.359375 12.640625 -15.359375 L 9.1875 -15.359375 C 9.039062 -15.359375 8.96875 -15.285156 8.96875 -15.140625 L 8.96875 -7.203125 C 8.96875 -6.359375 9.140625 -5.738281 9.484375 -5.34375 C 9.828125 -4.945312 10.382812 -4.75 11.15625 -4.75 L 12.21875 -4.75 C 12.65625 -4.75 12.875 -4.53125 12.875 -4.09375 L 12.875 -0.796875 C 12.875 -0.390625 12.65625 -0.160156 12.21875 -0.109375 C 11.25 -0.0546875 10.546875 -0.03125 10.109375 -0.03125 C 7.992188 -0.03125 6.410156 -0.390625 5.359375 -1.109375 C 4.316406 -1.828125 3.78125 -3.15625 3.75 -5.09375 L 3.75 -15.140625 C 3.75 -15.285156 3.675781 -15.359375 3.53125 -15.359375 L 1.578125 -15.359375 C 1.140625 -15.359375 0.921875 -15.578125 0.921875 -16.015625 L 0.921875 -19.046875 C 0.921875 -19.472656 1.140625 -19.6875 1.578125 -19.6875 L 3.53125 -19.6875 C 3.675781 -19.6875 3.75 -19.765625 3.75 -19.921875 L 3.75 -24.25 C 3.75 -24.6875 3.96875 -24.90625 4.40625 -24.90625 L 8.3125 -24.90625 C 8.75 -24.90625 8.96875 -24.6875 8.96875 -24.25 L 8.96875 -19.921875 C 8.96875 -19.765625 9.039062 -19.6875 9.1875 -19.6875 L 12.640625 -19.6875 C 13.078125 -19.6875 13.296875 -19.472656 13.296875 -19.046875 Z M 13.296875 -16.015625 "/></g></g></g><g fill="#ef5350" fill-opacity="1"><g transform="translate(184.236737, 274.053438)"><g><path d="M 12.265625 -20 C 14.304688 -20 15.953125 -19.375 17.203125 -18.125 C 18.453125 -16.875 19.078125 -15.175781 19.078125 -13.03125 L 19.078125 -0.65625 C 19.078125 -0.21875 18.859375 0 18.421875 0 L 14.328125 0 C 13.890625 0 13.671875 -0.21875 13.671875 -0.65625 L 13.671875 -11.921875 C 13.671875 -12.941406 13.390625 -13.769531 12.828125 -14.40625 C 12.265625 -15.039062 11.515625 -15.359375 10.578125 -15.359375 C 9.628906 -15.359375 8.859375 -15.039062 8.265625 -14.40625 C 7.679688 -13.769531 7.390625 -12.941406 7.390625 -11.921875 L 7.390625 -0.65625 C 7.390625 -0.21875 7.175781 0 6.75 0 L 2.640625 0 C 2.210938 0 2 -0.21875 2 -0.65625 L 2 -26.171875 C 2 -26.597656 2.210938 -26.8125 2.640625 -26.8125 L 6.75 -26.8125 C 7.175781 -26.8125 7.390625 -26.597656 7.390625 -26.171875 L 7.390625 -17.96875 C 7.390625 -17.863281 7.414062 -17.796875 7.46875 -17.765625 C 7.519531 -17.742188 7.570312 -17.773438 7.625 -17.859375 C 8.664062 -19.285156 10.210938 -20 12.265625 -20 Z M 12.265625 -20 "/></g></g></g><g fill="#ef5350" fill-opacity="1"><g transform="translate(205.191521, 274.053438)"><g><path d="M 16.59375 -26.171875 C 16.59375 -26.597656 16.804688 -26.8125 17.234375 -26.8125 L 21.34375 -26.8125 C 21.769531 -26.8125 21.984375 -26.597656 21.984375 -26.171875 L 21.984375 -0.65625 C 21.984375 -0.21875 21.769531 0 21.34375 0 L 17.234375 0 C 16.804688 0 16.59375 -0.21875 16.59375 -0.65625 L 16.59375 -11 C 16.59375 -11.144531 16.515625 -11.21875 16.359375 -11.21875 L 7.96875 -11.21875 C 7.8125 -11.21875 7.734375 -11.144531 7.734375 -11 L 7.734375 -0.65625 C 7.734375 -0.21875 7.519531 0 7.09375 0 L 2.984375 0 C 2.554688 0 2.34375 -0.21875 2.34375 -0.65625 L 2.34375 -26.171875 C 2.34375 -26.597656 2.554688 -26.8125 2.984375 -26.8125 L 7.09375 -26.8125 C 7.519531 -26.8125 7.734375 -26.597656 7.734375 -26.171875 L 7.734375 -16.09375 C 7.734375 -15.9375 7.8125 -15.859375 7.96875 -15.859375 L 16.359375 -15.859375 C 16.515625 -15.859375 16.59375 -15.9375 16.59375 -16.09375 Z M 16.59375 -26.171875 "/></g></g></g><g fill="#ef5350" fill-opacity="1"><g transform="translate(229.2493, 274.053438)"><g><path d="M 4.984375 -21.5625 C 4.015625 -21.5625 3.222656 -21.863281 2.609375 -22.46875 C 1.992188 -23.070312 1.6875 -23.84375 1.6875 -24.78125 C 1.6875 -25.726562 1.992188 -26.5 2.609375 -27.09375 C 3.222656 -27.695312 4.015625 -28 4.984375 -28 C 5.972656 -28 6.769531 -27.707031 7.375 -27.125 C 7.976562 -26.539062 8.28125 -25.757812 8.28125 -24.78125 C 8.28125 -23.8125 7.976562 -23.03125 7.375 -22.4375 C 6.769531 -21.851562 5.972656 -21.5625 4.984375 -21.5625 Z M 2.953125 0 C 2.515625 0 2.296875 -0.21875 2.296875 -0.65625 L 2.296875 -19.046875 C 2.296875 -19.472656 2.515625 -19.6875 2.953125 -19.6875 L 7.046875 -19.6875 C 7.484375 -19.6875 7.703125 -19.472656 7.703125 -19.046875 L 7.703125 -0.65625 C 7.703125 -0.21875 7.484375 0 7.046875 0 Z M 2.953125 0 "/></g></g></g><g fill="#ef5350" fill-opacity="1"><g transform="translate(239.209528, 274.053438)"><g><path d="M 7.625 0 C 7.269531 0 7.023438 -0.175781 6.890625 -0.53125 L 0.953125 -18.96875 C 0.929688 -19.019531 0.921875 -19.09375 0.921875 -19.1875 C 0.921875 -19.34375 0.96875 -19.460938 1.0625 -19.546875 C 1.164062 -19.640625 1.3125 -19.6875 1.5 -19.6875 L 6.015625 -19.6875 C 6.367188 -19.6875 6.613281 -19.5 6.75 -19.125 L 9.8125 -7.625 C 9.832031 -7.519531 9.878906 -7.46875 9.953125 -7.46875 C 10.035156 -7.46875 10.085938 -7.519531 10.109375 -7.625 L 13.171875 -19.125 C 13.304688 -19.5 13.550781 -19.6875 13.90625 -19.6875 L 18.421875 -19.65625 C 18.648438 -19.65625 18.816406 -19.582031 18.921875 -19.4375 C 19.023438 -19.300781 19.039062 -19.128906 18.96875 -18.921875 L 13.0625 -0.53125 C 12.9375 -0.175781 12.679688 0 12.296875 0 Z M 7.625 0 "/></g></g></g><g fill="#ef5350" fill-opacity="1"><g transform="translate(259.129982, 274.053438)"><g><path d="M 11.5 -4.25 C 13.175781 -4.332031 14.460938 -4.921875 15.359375 -6.015625 C 15.515625 -6.191406 15.679688 -6.28125 15.859375 -6.28125 C 16.015625 -6.28125 16.15625 -6.21875 16.28125 -6.09375 L 18.46875 -3.984375 C 18.625 -3.828125 18.703125 -3.675781 18.703125 -3.53125 C 18.703125 -3.34375 18.648438 -3.1875 18.546875 -3.0625 C 17.703125 -2.019531 16.617188 -1.195312 15.296875 -0.59375 C 13.984375 0.0078125 12.550781 0.3125 11 0.3125 C 8.644531 0.3125 6.691406 -0.285156 5.140625 -1.484375 C 3.597656 -2.691406 2.5625 -4.34375 2.03125 -6.4375 C 1.726562 -7.5625 1.578125 -8.75 1.578125 -10 C 1.578125 -11.476562 1.71875 -12.726562 2 -13.75 C 2.507812 -15.644531 3.535156 -17.164062 5.078125 -18.3125 C 6.617188 -19.457031 8.453125 -20.03125 10.578125 -20.03125 C 13.078125 -20.03125 15.0625 -19.289062 16.53125 -17.8125 C 18 -16.332031 18.953125 -14.253906 19.390625 -11.578125 C 19.492188 -10.734375 19.566406 -9.800781 19.609375 -8.78125 C 19.609375 -8.34375 19.394531 -8.125 18.96875 -8.125 L 7.203125 -8.125 C 7.046875 -8.125 6.96875 -8.046875 6.96875 -7.890625 C 7.050781 -7.359375 7.140625 -6.960938 7.234375 -6.703125 C 7.492188 -5.910156 8 -5.300781 8.75 -4.875 C 9.507812 -4.457031 10.425781 -4.25 11.5 -4.25 Z M 10.5 -15.359375 C 9.675781 -15.359375 8.988281 -15.160156 8.4375 -14.765625 C 7.894531 -14.367188 7.519531 -13.816406 7.3125 -13.109375 C 7.1875 -12.617188 7.113281 -12.296875 7.09375 -12.140625 C 7.0625 -11.992188 7.125 -11.921875 7.28125 -11.921875 L 13.796875 -11.921875 C 13.921875 -11.921875 13.984375 -11.96875 13.984375 -12.0625 C 13.984375 -12.34375 13.929688 -12.640625 13.828125 -12.953125 C 13.597656 -13.691406 13.203125 -14.273438 12.640625 -14.703125 C 12.078125 -15.140625 11.363281 -15.359375 10.5 -15.359375 Z M 10.5 -15.359375 "/></g></g></g></svg>