<svg xmlns="http://www.w3.org/2000/svg" xmlns:xlink="http://www.w3.org/1999/xlink" width="500" zoomAndPan="magnify" viewBox="0 0 375 374.999991" height="500" preserveAspectRatio="xMidYMid meet" version="1.0"><defs><g/><clipPath id="dbcc18db72"><path d="M 151 39 L 311.929688 39 L 311.929688 274.074219 L 151 274.074219 Z M 151 39 " clip-rule="nonzero"/></clipPath><clipPath id="058e78e366"><path d="M 63 23.574219 L 226 23.574219 L 226 254 L 63 254 Z M 63 23.574219 " clip-rule="nonzero"/></clipPath></defs><g clip-path="url(#dbcc18db72)"><path fill="#ef5350" d="M 203.914062 133.070312 C 200.589844 131.429688 199.207031 127.363281 200.847656 124.027344 L 231.957031 60.882812 L 244.0625 66.855469 L 212.953125 130 C 211.3125 133.332031 207.25 134.710938 203.914062 133.070312 Z M 241.769531 39.65625 L 241.957031 39.8125 C 294.269531 68.433594 315.1875 133.507812 288.574219 187.523438 C 280.773438 203.359375 269.730469 216.535156 256.644531 226.640625 C 234.582031 243.671875 206.710938 251.980469 178.765625 249.628906 L 212.503906 181.136719 C 217.542969 171.28125 219.753906 169.652344 229.222656 165.671875 C 239.15625 161.492188 242.566406 160.640625 247.878906 151.414062 C 258.039062 133.765625 268.972656 101.421875 275.824219 82.421875 L 267.664062 78.597656 C 259.039062 97.5 254.589844 108.742188 245.5625 126.417969 C 224.777344 167.132812 221.734375 146.503906 206.578125 161.8125 C 204.824219 163.582031 198.320312 175.242188 190.582031 189.898438 L 154.691406 262.757812 L 151.425781 269.382812 C 185.625 278.960938 223.648438 274.101562 255.488281 252.800781 C 277.230469 238.261719 293 218.128906 302.160156 195.585938 C 301.6875 196.699219 301.191406 197.808594 300.679688 198.921875 C 327.84375 140.058594 303.277344 69.929688 244.816406 41.101562 C 243.804688 40.601562 242.785156 40.121094 241.769531 39.652344 Z M 221.226562 141.605469 C 217.898438 139.964844 216.519531 135.894531 218.15625 132.566406 L 249.269531 69.414062 L 261.375 75.386719 L 230.265625 138.53125 C 228.625 141.863281 224.558594 143.242188 221.226562 141.601562 Z M 221.226562 141.605469 " fill-opacity="1" fill-rule="evenodd"/></g><g clip-path="url(#058e78e366)"><path fill="#69b550" d="M 69.566406 137.660156 L 71.6875 134.929688 C 73.230469 132.488281 72.507812 133.953125 73.972656 130.964844 L 82.585938 113.199219 C 93.105469 94.441406 118.578125 61.65625 147.972656 52.71875 C 127.984375 67.015625 98.773438 87.179688 79.671875 139.683594 C 62.429688 187.066406 73.898438 223.257812 97.199219 240.433594 C 118.78125 256.339844 146.554688 260.265625 157.523438 238.917969 C 166.085938 222.253906 175.34375 204.230469 184.296875 186.796875 C 191.207031 171.726562 196.484375 159.464844 196.824219 156.996094 C 199.726562 135.644531 181.523438 145.792969 201.136719 104.5 C 209.652344 86.570312 215.851562 76.195312 225.585938 57.839844 L 217.585938 53.695312 C 206.691406 70.707031 187.714844 99.085938 179.914062 117.890625 C 175.832031 127.730469 177.230469 130.949219 179.972656 141.378906 C 182.582031 151.320312 182.632812 154.066406 177.890625 164.0625 L 151.125 216.242188 C 138.640625 240.578125 114.210938 234.109375 98.449219 216.082031 C 85.796875 201.613281 80.699219 178.761719 88.472656 154.191406 C 101.785156 146.773438 118.910156 148.160156 137.636719 135.878906 C 169.039062 115.277344 174.296875 57.21875 210.292969 32.378906 C 170.125 1.640625 31.917969 54.898438 69.570312 137.660156 Z M 69.566406 137.660156 " fill-opacity="1" fill-rule="evenodd"/></g><g fill="#ef5350" fill-opacity="1"><g transform="translate(53.806607, 338.894235)"><g><path d="M 23.953125 -37.78125 C 23.953125 -38.40625 24.265625 -38.71875 24.890625 -38.71875 L 30.8125 -38.71875 C 31.4375 -38.71875 31.75 -38.40625 31.75 -37.78125 L 31.75 -0.9375 C 31.75 -0.3125 31.4375 0 30.8125 0 L 24.890625 0 C 24.265625 0 23.953125 -0.3125 23.953125 -0.9375 L 23.953125 -15.875 C 23.953125 -16.09375 23.84375 -16.203125 23.625 -16.203125 L 11.5 -16.203125 C 11.28125 -16.203125 11.171875 -16.09375 11.171875 -15.875 L 11.171875 -0.9375 C 11.171875 -0.3125 10.859375 0 10.234375 0 L 4.3125 0 C 3.6875 0 3.375 -0.3125 3.375 -0.9375 L 3.375 -37.78125 C 3.375 -38.40625 3.6875 -38.71875 4.3125 -38.71875 L 10.234375 -38.71875 C 10.859375 -38.71875 11.171875 -38.40625 11.171875 -37.78125 L 11.171875 -23.234375 C 11.171875 -23.015625 11.28125 -22.90625 11.5 -22.90625 L 23.625 -22.90625 C 23.84375 -22.90625 23.953125 -23.015625 23.953125 -23.234375 Z M 23.953125 -37.78125 "/></g></g></g><g fill="#ef5350" fill-opacity="1"><g transform="translate(88.542754, 338.894235)"><g><path d="M 16.59375 -6.140625 C 19.03125 -6.253906 20.894531 -7.101562 22.1875 -8.6875 C 22.40625 -8.945312 22.644531 -9.078125 22.90625 -9.078125 C 23.125 -9.078125 23.320312 -8.984375 23.5 -8.796875 L 26.65625 -5.75 C 26.882812 -5.53125 27 -5.3125 27 -5.09375 C 27 -4.832031 26.921875 -4.609375 26.765625 -4.421875 C 25.554688 -2.910156 24 -1.722656 22.09375 -0.859375 C 20.195312 0.00390625 18.125 0.4375 15.875 0.4375 C 12.476562 0.4375 9.664062 -0.425781 7.4375 -2.15625 C 5.207031 -3.882812 3.707031 -6.265625 2.9375 -9.296875 C 2.488281 -10.910156 2.265625 -12.625 2.265625 -14.4375 C 2.265625 -16.570312 2.46875 -18.378906 2.875 -19.859375 C 3.613281 -22.585938 5.097656 -24.78125 7.328125 -26.4375 C 9.554688 -28.09375 12.203125 -28.921875 15.265625 -28.921875 C 18.878906 -28.921875 21.742188 -27.851562 23.859375 -25.71875 C 25.984375 -23.582031 27.359375 -20.578125 27.984375 -16.703125 C 28.128906 -15.484375 28.238281 -14.140625 28.3125 -12.671875 C 28.3125 -12.035156 28 -11.71875 27.375 -11.71875 L 10.40625 -11.71875 C 10.175781 -11.71875 10.0625 -11.609375 10.0625 -11.390625 C 10.175781 -10.617188 10.304688 -10.046875 10.453125 -9.671875 C 10.816406 -8.535156 11.539062 -7.660156 12.625 -7.046875 C 13.71875 -6.441406 15.039062 -6.140625 16.59375 -6.140625 Z M 15.15625 -22.1875 C 13.976562 -22.1875 12.988281 -21.898438 12.1875 -21.328125 C 11.394531 -20.753906 10.851562 -19.953125 10.5625 -18.921875 C 10.375 -18.210938 10.265625 -17.75 10.234375 -17.53125 C 10.191406 -17.3125 10.285156 -17.203125 10.515625 -17.203125 L 19.90625 -17.203125 C 20.09375 -17.203125 20.1875 -17.273438 20.1875 -17.421875 C 20.1875 -17.828125 20.113281 -18.253906 19.96875 -18.703125 C 19.632812 -19.765625 19.0625 -20.609375 18.25 -21.234375 C 17.4375 -21.867188 16.40625 -22.1875 15.15625 -22.1875 Z M 15.15625 -22.1875 "/></g></g></g><g fill="#ef5350" fill-opacity="1"><g transform="translate(118.798598, 338.894235)"><g><path d="M 14.265625 -28.875 C 16.660156 -28.875 18.796875 -28.457031 20.671875 -27.625 C 22.554688 -26.800781 24.023438 -25.664062 25.078125 -24.21875 C 26.128906 -22.78125 26.65625 -21.179688 26.65625 -19.421875 L 26.65625 -0.9375 C 26.65625 -0.3125 26.34375 0 25.71875 0 L 19.796875 0 C 19.171875 0 18.859375 -0.3125 18.859375 -0.9375 L 18.859375 -2.265625 C 18.859375 -2.410156 18.820312 -2.492188 18.75 -2.515625 C 18.675781 -2.535156 18.582031 -2.488281 18.46875 -2.375 C 16.78125 -0.5 14.253906 0.4375 10.890625 0.4375 C 8.054688 0.4375 5.769531 -0.257812 4.03125 -1.65625 C 2.300781 -3.0625 1.4375 -5.128906 1.4375 -7.859375 C 1.4375 -10.691406 2.429688 -12.890625 4.421875 -14.453125 C 6.410156 -16.023438 9.25 -16.8125 12.9375 -16.8125 L 18.53125 -16.8125 C 18.75 -16.8125 18.859375 -16.921875 18.859375 -17.140625 L 18.859375 -18.3125 C 18.859375 -19.53125 18.476562 -20.476562 17.71875 -21.15625 C 16.96875 -21.84375 15.875 -22.1875 14.4375 -22.1875 C 13.332031 -22.1875 12.421875 -22 11.703125 -21.625 C 10.984375 -21.257812 10.492188 -20.742188 10.234375 -20.078125 C 10.015625 -19.554688 9.644531 -19.316406 9.125 -19.359375 L 2.984375 -20.140625 C 2.691406 -20.171875 2.460938 -20.25 2.296875 -20.375 C 2.128906 -20.507812 2.066406 -20.6875 2.109375 -20.90625 C 2.285156 -22.414062 2.914062 -23.78125 4 -25 C 5.09375 -26.21875 6.53125 -27.164062 8.3125 -27.84375 C 10.101562 -28.53125 12.085938 -28.875 14.265625 -28.875 Z M 13.171875 -5.359375 C 14.753906 -5.359375 16.097656 -5.78125 17.203125 -6.625 C 18.304688 -7.476562 18.859375 -8.570312 18.859375 -9.90625 L 18.859375 -11.84375 C 18.859375 -12.0625 18.75 -12.171875 18.53125 -12.171875 L 14.609375 -12.171875 C 12.941406 -12.171875 11.628906 -11.851562 10.671875 -11.21875 C 9.710938 -10.59375 9.234375 -9.710938 9.234375 -8.578125 C 9.234375 -7.578125 9.59375 -6.789062 10.3125 -6.21875 C 11.03125 -5.644531 11.984375 -5.359375 13.171875 -5.359375 Z M 13.171875 -5.359375 "/></g></g></g><g fill="#ef5350" fill-opacity="1"><g transform="translate(148.003501, 338.894235)"><g><path d="M 3.921875 0 C 3.296875 0 2.984375 -0.3125 2.984375 -0.9375 L 2.984375 -37.78125 C 2.984375 -38.40625 3.296875 -38.71875 3.921875 -38.71875 L 9.84375 -38.71875 C 10.46875 -38.71875 10.78125 -38.40625 10.78125 -37.78125 L 10.78125 -0.9375 C 10.78125 -0.3125 10.46875 0 9.84375 0 Z M 3.921875 0 "/></g></g></g><g fill="#ef5350" fill-opacity="1"><g transform="translate(161.776273, 338.894235)"><g><path d="M 19.1875 -23.125 C 19.1875 -22.5 18.875 -22.1875 18.25 -22.1875 L 13.28125 -22.1875 C 13.050781 -22.1875 12.9375 -22.070312 12.9375 -21.84375 L 12.9375 -10.40625 C 12.9375 -9.1875 13.1875 -8.289062 13.6875 -7.71875 C 14.1875 -7.144531 14.988281 -6.859375 16.09375 -6.859375 L 17.640625 -6.859375 C 18.265625 -6.859375 18.578125 -6.546875 18.578125 -5.921875 L 18.578125 -1.15625 C 18.578125 -0.570312 18.265625 -0.242188 17.640625 -0.171875 C 16.242188 -0.0976562 15.234375 -0.0625 14.609375 -0.0625 C 11.546875 -0.0625 9.253906 -0.578125 7.734375 -1.609375 C 6.222656 -2.640625 5.453125 -4.554688 5.421875 -7.359375 L 5.421875 -21.84375 C 5.421875 -22.070312 5.3125 -22.1875 5.09375 -22.1875 L 2.265625 -22.1875 C 1.640625 -22.1875 1.328125 -22.5 1.328125 -23.125 L 1.328125 -27.484375 C 1.328125 -28.117188 1.640625 -28.4375 2.265625 -28.4375 L 5.09375 -28.4375 C 5.3125 -28.4375 5.421875 -28.546875 5.421875 -28.765625 L 5.421875 -35.015625 C 5.421875 -35.640625 5.734375 -35.953125 6.359375 -35.953125 L 12 -35.953125 C 12.625 -35.953125 12.9375 -35.640625 12.9375 -35.015625 L 12.9375 -28.765625 C 12.9375 -28.546875 13.050781 -28.4375 13.28125 -28.4375 L 18.25 -28.4375 C 18.875 -28.4375 19.1875 -28.117188 19.1875 -27.484375 Z M 19.1875 -23.125 "/></g></g></g><g fill="#ef5350" fill-opacity="1"><g transform="translate(182.794953, 338.894235)"><g><path d="M 17.703125 -28.875 C 20.648438 -28.875 23.023438 -27.96875 24.828125 -26.15625 C 26.640625 -24.351562 27.546875 -21.90625 27.546875 -18.8125 L 27.546875 -0.9375 C 27.546875 -0.3125 27.234375 0 26.609375 0 L 20.6875 0 C 20.0625 0 19.75 -0.3125 19.75 -0.9375 L 19.75 -17.203125 C 19.75 -18.679688 19.34375 -19.878906 18.53125 -20.796875 C 17.71875 -21.722656 16.628906 -22.1875 15.265625 -22.1875 C 13.898438 -22.1875 12.789062 -21.722656 11.9375 -20.796875 C 11.09375 -19.878906 10.671875 -18.679688 10.671875 -17.203125 L 10.671875 -0.9375 C 10.671875 -0.3125 10.359375 0 9.734375 0 L 3.8125 0 C 3.1875 0 2.875 -0.3125 2.875 -0.9375 L 2.875 -37.78125 C 2.875 -38.40625 3.1875 -38.71875 3.8125 -38.71875 L 9.734375 -38.71875 C 10.359375 -38.71875 10.671875 -38.40625 10.671875 -37.78125 L 10.671875 -25.9375 C 10.671875 -25.789062 10.707031 -25.695312 10.78125 -25.65625 C 10.851562 -25.625 10.925781 -25.664062 11 -25.78125 C 12.519531 -27.84375 14.753906 -28.875 17.703125 -28.875 Z M 17.703125 -28.875 "/></g></g></g><g fill="#ef5350" fill-opacity="1"><g transform="translate(213.050796, 338.894235)"><g><path d="M 23.953125 -37.78125 C 23.953125 -38.40625 24.265625 -38.71875 24.890625 -38.71875 L 30.8125 -38.71875 C 31.4375 -38.71875 31.75 -38.40625 31.75 -37.78125 L 31.75 -0.9375 C 31.75 -0.3125 31.4375 0 30.8125 0 L 24.890625 0 C 24.265625 0 23.953125 -0.3125 23.953125 -0.9375 L 23.953125 -15.875 C 23.953125 -16.09375 23.84375 -16.203125 23.625 -16.203125 L 11.5 -16.203125 C 11.28125 -16.203125 11.171875 -16.09375 11.171875 -15.875 L 11.171875 -0.9375 C 11.171875 -0.3125 10.859375 0 10.234375 0 L 4.3125 0 C 3.6875 0 3.375 -0.3125 3.375 -0.9375 L 3.375 -37.78125 C 3.375 -38.40625 3.6875 -38.71875 4.3125 -38.71875 L 10.234375 -38.71875 C 10.859375 -38.71875 11.171875 -38.40625 11.171875 -37.78125 L 11.171875 -23.234375 C 11.171875 -23.015625 11.28125 -22.90625 11.5 -22.90625 L 23.625 -22.90625 C 23.84375 -22.90625 23.953125 -23.015625 23.953125 -23.234375 Z M 23.953125 -37.78125 "/></g></g></g><g fill="#ef5350" fill-opacity="1"><g transform="translate(247.786943, 338.894235)"><g><path d="M 7.1875 -31.140625 C 5.789062 -31.140625 4.648438 -31.570312 3.765625 -32.4375 C 2.878906 -33.300781 2.4375 -34.414062 2.4375 -35.78125 C 2.4375 -37.144531 2.878906 -38.257812 3.765625 -39.125 C 4.648438 -40 5.789062 -40.4375 7.1875 -40.4375 C 8.625 -40.4375 9.773438 -40.007812 10.640625 -39.15625 C 11.515625 -38.3125 11.953125 -37.1875 11.953125 -35.78125 C 11.953125 -34.382812 11.515625 -33.257812 10.640625 -32.40625 C 9.773438 -31.5625 8.625 -31.140625 7.1875 -31.140625 Z M 4.265625 0 C 3.628906 0 3.3125 -0.3125 3.3125 -0.9375 L 3.3125 -27.484375 C 3.3125 -28.117188 3.628906 -28.4375 4.265625 -28.4375 L 10.171875 -28.4375 C 10.804688 -28.4375 11.125 -28.117188 11.125 -27.484375 L 11.125 -0.9375 C 11.125 -0.3125 10.804688 0 10.171875 0 Z M 4.265625 0 "/></g></g></g><g fill="#ef5350" fill-opacity="1"><g transform="translate(262.168151, 338.894235)"><g><path d="M 11 0 C 10.488281 0 10.140625 -0.257812 9.953125 -0.78125 L 1.375 -27.375 C 1.34375 -27.445312 1.328125 -27.5625 1.328125 -27.71875 C 1.328125 -27.9375 1.398438 -28.109375 1.546875 -28.234375 C 1.691406 -28.367188 1.894531 -28.4375 2.15625 -28.4375 L 8.6875 -28.4375 C 9.195312 -28.4375 9.546875 -28.15625 9.734375 -27.59375 L 14.15625 -11 C 14.195312 -10.851562 14.269531 -10.78125 14.375 -10.78125 C 14.488281 -10.78125 14.566406 -10.851562 14.609375 -11 L 19.03125 -27.59375 C 19.207031 -28.15625 19.554688 -28.4375 20.078125 -28.4375 L 26.609375 -28.375 C 26.941406 -28.375 27.179688 -28.269531 27.328125 -28.0625 C 27.472656 -27.863281 27.488281 -27.617188 27.375 -27.328125 L 18.859375 -0.78125 C 18.671875 -0.257812 18.300781 0 17.75 0 Z M 11 0 "/></g></g></g><g fill="#ef5350" fill-opacity="1"><g transform="translate(290.930565, 338.894235)"><g><path d="M 16.59375 -6.140625 C 19.03125 -6.253906 20.894531 -7.101562 22.1875 -8.6875 C 22.40625 -8.945312 22.644531 -9.078125 22.90625 -9.078125 C 23.125 -9.078125 23.320312 -8.984375 23.5 -8.796875 L 26.65625 -5.75 C 26.882812 -5.53125 27 -5.3125 27 -5.09375 C 27 -4.832031 26.921875 -4.609375 26.765625 -4.421875 C 25.554688 -2.910156 24 -1.722656 22.09375 -0.859375 C 20.195312 0.00390625 18.125 0.4375 15.875 0.4375 C 12.476562 0.4375 9.664062 -0.425781 7.4375 -2.15625 C 5.207031 -3.882812 3.707031 -6.265625 2.9375 -9.296875 C 2.488281 -10.910156 2.265625 -12.625 2.265625 -14.4375 C 2.265625 -16.570312 2.46875 -18.378906 2.875 -19.859375 C 3.613281 -22.585938 5.097656 -24.78125 7.328125 -26.4375 C 9.554688 -28.09375 12.203125 -28.921875 15.265625 -28.921875 C 18.878906 -28.921875 21.742188 -27.851562 23.859375 -25.71875 C 25.984375 -23.582031 27.359375 -20.578125 27.984375 -16.703125 C 28.128906 -15.484375 28.238281 -14.140625 28.3125 -12.671875 C 28.3125 -12.035156 28 -11.71875 27.375 -11.71875 L 10.40625 -11.71875 C 10.175781 -11.71875 10.0625 -11.609375 10.0625 -11.390625 C 10.175781 -10.617188 10.304688 -10.046875 10.453125 -9.671875 C 10.816406 -8.535156 11.539062 -7.660156 12.625 -7.046875 C 13.71875 -6.441406 15.039062 -6.140625 16.59375 -6.140625 Z M 15.15625 -22.1875 C 13.976562 -22.1875 12.988281 -21.898438 12.1875 -21.328125 C 11.394531 -20.753906 10.851562 -19.953125 10.5625 -18.921875 C 10.375 -18.210938 10.265625 -17.75 10.234375 -17.53125 C 10.191406 -17.3125 10.285156 -17.203125 10.515625 -17.203125 L 19.90625 -17.203125 C 20.09375 -17.203125 20.1875 -17.273438 20.1875 -17.421875 C 20.1875 -17.828125 20.113281 -18.253906 19.96875 -18.703125 C 19.632812 -19.765625 19.0625 -20.609375 18.25 -21.234375 C 17.4375 -21.867188 16.40625 -22.1875 15.15625 -22.1875 Z M 15.15625 -22.1875 "/></g></g></g></svg>